<?xml version="1.0" encoding="utf-8"?>
<!-- Generator: Adobe Illustrator 16.0.0, SVG Export Plug-In . SVG Version: 6.00 Build 0)  -->
<!DOCTYPE svg PUBLIC "-//W3C//DTD SVG 1.1//EN" "http://www.w3.org/Graphics/SVG/1.1/DTD/svg11.dtd">
<svg version="1.1" id="Layer_1" xmlns="http://www.w3.org/2000/svg" xmlns:xlink="http://www.w3.org/1999/xlink" x="0px" y="0px"
	 width="1714.31px" height="592.469px" viewBox="0 0 1714.31 592.469" enable-background="new 0 0 1714.31 592.469"
	 xml:space="preserve">
<g>
	<g>
		<g>
			<g>
				<defs>
					<path id="SVGID_1_" d="M335.654,367.561l-152.366,87.97c-1.095,0.633-2.438,0.633-3.53,0L27.393,367.563
						c-2.354-1.358-5.298,0.341-5.294,3.062l0.076,64.109c0.003,1.262,0.675,2.424,1.766,3.053l155.819,89.963
						c1.092,0.631,2.438,0.631,3.529,0l155.814-89.965c1.091-0.629,1.763-1.793,1.765-3.053l0.078-64.109
						c0.002-2.063-1.688-3.537-3.534-3.539C336.825,367.082,336.224,367.232,335.654,367.561 M358.489,269.27v175.938
						c0,1.262-0.672,2.426-1.765,3.061l-152.363,87.967c-2.354,1.355-2.354,4.758,0.003,6.113l55.561,31.986
						c1.094,0.629,2.437,0.629,3.527,0l155.817-89.965c1.092-0.629,1.765-1.795,1.765-3.057l-0.004-179.922
						c0-1.261-0.671-2.424-1.761-3.057l-55.482-32.121c-0.566-0.33-1.174-0.48-1.763-0.48
						C360.181,265.735,358.489,267.208,358.489,269.27 M339.68,163.306l-55.561,31.986c-2.355,1.357-2.358,4.757-0.003,6.116
						l152.365,87.969c1.093,0.631,1.766,1.796,1.766,3.058V468.37c0,2.719,2.945,4.418,5.3,3.055l55.479-32.123
						c1.089-0.631,1.761-1.795,1.761-3.055V256.322c0-1.261-0.672-2.426-1.765-3.056l-155.819-89.959
						c-0.546-0.315-1.152-0.473-1.765-0.473C340.831,162.833,340.225,162.991,339.68,163.306 M79.333,127.624l-55.48,32.122
						c-1.09,0.632-1.762,1.795-1.762,3.055v179.924c0,1.263,0.674,2.426,1.766,3.058l155.818,89.959
						c1.092,0.631,2.436,0.631,3.526,0.002l55.56-31.987c2.356-1.355,2.358-4.757,0.004-6.115L86.397,309.67
						c-1.092-0.631-1.765-1.797-1.765-3.059V130.68c0-2.061-1.691-3.536-3.535-3.535C80.508,127.144,79.903,127.293,79.333,127.624
						 M339.895,69.657L184.08,159.621c-1.093,0.629-1.765,1.793-1.767,3.053l-0.078,64.108c-0.004,2.719,2.939,4.421,5.294,3.061
						l152.368-87.968c1.091-0.631,2.438-0.631,3.529,0l152.361,87.966c2.355,1.36,5.301-0.341,5.299-3.06l-0.079-64.11
						c-0.001-1.259-0.677-2.423-1.768-3.053L343.426,69.657c-0.546-0.315-1.155-0.473-1.768-0.473
						C341.052,69.183,340.441,69.342,339.895,69.657 M259.286,23.64l-155.819,89.961c-1.092,0.631-1.765,1.796-1.765,3.057
						l0.004,179.922c0,1.26,0.671,2.424,1.761,3.055l55.479,32.123c2.354,1.359,5.301-0.338,5.301-3.057V152.765
						c0-1.261,0.673-2.426,1.765-3.057l152.364-87.967c2.354-1.359,2.353-4.76-0.006-6.116l-55.559-31.988
						c-0.545-0.313-1.151-0.47-1.762-0.47C260.442,23.166,259.832,23.324,259.286,23.64"/>
				</defs>
				<clipPath id="SVGID_2_">
					<use xlink:href="#SVGID_1_"  overflow="visible"/>
				</clipPath>
				
					<linearGradient id="SVGID_3_" gradientUnits="userSpaceOnUse" x1="819.6951" y1="34.5547" x2="820.6951" y2="34.5547" gradientTransform="matrix(218.4381 0 0 218.4381 -179030.8281 -7249.0938)">
					<stop  offset="0" style="stop-color:#06A864"/>
					<stop  offset="0.9996" style="stop-color:#0AD119"/>
					<stop  offset="1" style="stop-color:#0AD119"/>
				</linearGradient>
				<rect x="22.091" y="23.166" clip-path="url(#SVGID_2_)" fill="url(#SVGID_3_)" width="479" height="551.797"/>
			</g>
		</g>
	</g>
</g>
<g>
	<g>
		<path d="M868.487,132.04h71.066l-1.903,2.862L824.603,297.078l116.386,166.947l1.422,1.907h-72.017l-85.38-125.447
			l-85.382,125.447h-71.868l1.273-1.907l115.909-166.947L632.377,134.902l-2.083-2.862h71.246l83.474,124.494L868.487,132.04z"/>
		<path d="M1523.842,132.04h71.066l-1.903,2.862l-113.046,162.176l116.385,166.947l1.422,1.907h-72.016l-85.381-125.447
			l-85.382,125.447h-71.868l1.273-1.907l115.909-166.947l-112.569-162.176l-2.083-2.862h71.246l83.474,124.494L1523.842,132.04z"/>
		<path d="M1264.288,228.869c0,25.758-12.401,50.561-43.406,64.394c39.113,11.925,53.423,53.423,53.423,74.411
			c0,74.411-55.808,98.26-124.972,98.26c-52.945,0-105.415,0-158.36,0V132.04c52.47,0,105.415,0,158.36,0
			C1215.158,132.04,1264.288,161.613,1264.288,228.869z M1052.981,266.074h96.352c39.591,0,52.47-16.695,52.47-35.774
			c0-15.264-12.402-41.021-52.47-41.021h-96.352V266.074z M1052.981,407.264h96.352c25.758,0,62.485-8.586,62.485-40.067
			c0-30.051-36.728-45.791-62.485-45.791h-96.352V407.264z"/>
	</g>
	<g>
		<path fill="none" stroke="#000000" stroke-width="16" d="M868.487,132.04h71.066l-1.903,2.862L824.603,297.078l116.386,166.947
			l1.422,1.907h-72.017l-85.38-125.447l-85.382,125.447h-71.868l1.273-1.907l115.909-166.947L632.377,134.902l-2.083-2.862h71.246
			l83.474,124.494L868.487,132.04z"/>
		<path fill="none" stroke="#000000" stroke-width="16" d="M1523.842,132.04h71.066l-1.903,2.862l-113.046,162.176l116.385,166.947
			l1.422,1.907h-72.016l-85.381-125.447l-85.382,125.447h-71.868l1.273-1.907l115.909-166.947l-112.569-162.176l-2.083-2.862h71.246
			l83.474,124.494L1523.842,132.04z"/>
		<path fill="none" stroke="#000000" stroke-width="16" d="M1264.288,228.869c0,25.758-12.401,50.561-43.406,64.394
			c39.113,11.925,53.423,53.423,53.423,74.411c0,74.411-55.808,98.26-124.972,98.26c-52.945,0-105.415,0-158.36,0V132.04
			c52.47,0,105.415,0,158.36,0C1215.158,132.04,1264.288,161.613,1264.288,228.869z M1052.981,266.074h96.352
			c39.591,0,52.47-16.695,52.47-35.774c0-15.264-12.402-41.021-52.47-41.021h-96.352V266.074z M1052.981,407.264h96.352
			c25.758,0,62.485-8.586,62.485-40.067c0-30.051-36.728-45.791-62.485-45.791h-96.352V407.264z"/>
	</g>
</g>
</svg>
